# xmcd
#
# Track frame offsets:
#	150
#	8370
#	19181
#	32302
#	45424
#	58600
#	73160
#	84660
#	97384
#	108862
#	122495
#	135912
#	147142
#	158945
#	170994
#	180405
#	191562
#	203319
#	214039
#	226038
#	237858
#	250724
#	263717
#	276526
#	288248
#
# Disc length: 3985 seconds
#
# Revision: 0
# Processed by: cddbd v1.5.2PL0 Copyright (c) Steve Scherf et al.
# Submitted via: EasyCDDAExtractor 2010.6.0.0
#
DISCID=4e0f8f19
DTITLE=Various Artist - Bluegrass-Historic Cuts-Blue Ridge Sides Cd-A
DYEAR=1900
DGENRE=
TTITLE0=Richardson Larry and Happy Smith - Just Let Me Fall
TTITLE1=Smith Happy - I'm Lonesome
TTITLE2=Stone Dee - Highway 220
TTITLE3=Stone Dee - Countin' The Days
TTITLE4=Eanes Jim - Long Journey Home
TTITLE5=Eanes Jim - Returned From Missing In Action
TTITLE6=Church Brothers - You're Still The Rose Of My Heart
TTITLE7=Mainer Wade - Three Nights In A Bar Room
TTITLE8=Mainer Wade - Blue Ridge Mountain Blues
TTITLE9=Stone Dee - Pilot Mountain Rag
TTITLE10=Stone Dee - No Room In Your Life For Me Now
TTITLE11=Harold and I. W. - I Won't Write Another Letter To You Darling
TTITLE12=Janey Jimmy - So Lonely For Mother And Dad
TTITLE13=Franklin Joe - There'll Be No Wedding Bells For Me
TTITLE14=Clifton Bill - Burglar Man
TTITLE15=Clifton Bill - Flower Blooming In The Wildwood
TTITLE16=Clifton Bill - All The Good Times Are Past And Gone
TTITLE17=Clifton Bill - Wake Up Susan
TTITLE18=Harper Betty - Don't That Moon Look Lonesome
TTITLE19=Harper Betty - I'm Lonesome Tonight
TTITLE20=Church Brothers - An Angel With Blue Eyes
TTITLE21=Church Brothers - When Jesus Calls You Home
TTITLE22=Eanes Jim - Sweeter Love Than Yours I'll Never Know
TTITLE23=Eanes Jim - Drunkard's Highway
TTITLE24=Church Brothers - Way Down In Ole' Caroline
EXTD=
EXTT0=
EXTT1=
EXTT2=
EXTT3=
EXTT4=
EXTT5=
EXTT6=
EXTT7=
EXTT8=
EXTT9=
EXTT10=
EXTT11=
EXTT12=
EXTT13=
EXTT14=
EXTT15=
EXTT16=
EXTT17=
EXTT18=
EXTT19=
EXTT20=
EXTT21=
EXTT22=
EXTT23=
EXTT24=
PLAYORDER=
